# xmcd CD database file
#
# Track frame offsets:
#	150
#	28880
#	54005
#	74497
#	88127
#	100710
#	112115
#	122710
#	144627
#	156080
#	184065
#	230602
#	242535
#	254232
#	266232
#	278407
#
# Disc length: 4059 seconds
#
# Revision: 0
# Processed by: cddbd v1.4PL0 Copyright (c) Steve Scherf et al.
# Submitted via: CDex 1.50Beta5
#
DISCID=ea0fd910
DTITLE=Duke Ellington - The Complete Capitol Recordings of Duke Ellington [CD4]
DYEAR=1900
DGENRE=Jazz
TTITLE0=Things Ain't What They Used To Be
TTITLE1=Happy-Go-Lucky Local
TTITLE2=Rockin' In Rhythm
TTITLE3=Falling Like A Raindrop
TTITLE4=All Day Long
TTITLE5=Bunny Hop Mambo
TTITLE6=Isle of Capri
TTITLE7=C Jam Blues
TTITLE8=Band Call
TTITLE9=Gonna Tan Your Hide
TTITLE10=It Don't Mean A Thing
TTITLE11=Smile
TTITLE12=Echo Tnago
TTITLE13=If I Give My Heart To ou
TTITLE14=Chile Bowl
TTITLE15=Bakiff
EXTD=
EXTT0=
EXTT1=
EXTT2=
EXTT3=
EXTT4=
EXTT5=
EXTT6=
EXTT7=
EXTT8=
EXTT9=
EXTT10=
EXTT11=
EXTT12=
EXTT13=
EXTT14=
EXTT15=
PLAYORDER=
